<svg width="36px" height="23px" viewBox="0 0 36 23" version="1.1" xmlns="http://www.w3.org/2000/svg" xmlns:xlink="http://www.w3.org/1999/xlink">
    <g id="Page-1" stroke="none" stroke-width="1" fill="none" fill-rule="evenodd">
        <path d="M28.3137085,14 L2,14 C0.8954305,14 1.3527075e-16,13.1045695 0,12 C-1.3527075e-16,10.8954305 0.8954305,10 2,10 L29.1715729,10 L23.4142136,4.24264069 C22.633165,3.4615921 22.633165,2.19526215 23.4142136,1.41421356 C24.1952621,0.633164979 25.4615921,0.633164979 26.2426407,1.41421356 L34.7279221,9.89949494 C35.1840454,10.3556183 35.373798,10.9772433 35.2971798,11.5710678 C35.373798,12.1648923 35.1840454,12.7865173 34.7279221,13.2426407 L26.2426407,21.7279221 C25.4615921,22.5089706 24.1952621,22.5089706 23.4142136,21.7279221 C22.633165,20.9468735 22.633165,19.6805435 23.4142136,18.8994949 L28.3137085,14 Z" id="Combined-Shape" fill="#fff"></path>
    </g>
</svg>