<svg id="Layer_3" data-name="Layer 3" xmlns="http://www.w3.org/2000/svg" viewBox="0 0 261.33 195.01"><defs><style>.cls-1{fill:#8bc7d4;}.cls-2{fill:#ffcb57;}.cls-3{fill:#8c8bc4;}</style></defs><title>confetti</title><g id="Confetti"><path class="cls-1" d="M166.75,63.49a.5.5,0,0,1-.49-.43l-.61-4.5a.5.5,0,0,1,.43-.56.49.49,0,0,1,.56.43l.61,4.5a.5.5,0,0,1-.43.56Z"/><path class="cls-2" d="M142.49,60.89a.5.5,0,0,1-.42-.23l-1.88-3a.5.5,0,1,1,.85-.54l1.88,3a.5.5,0,0,1-.42.77Z"/><path class="cls-2" d="M109.67,57.67a.5.5,0,0,1-.42-.23l-1.88-3a.5.5,0,1,1,.85-.54l1.88,3a.5.5,0,0,1-.42.77Z"/><path class="cls-3" d="M168.66,31.23a.5.5,0,0,1-.24-.94l2.94-1.61a.5.5,0,0,1,.48.88l-2.94,1.61A.49.49,0,0,1,168.66,31.23Z"/><path class="cls-3" d="M186.23,81.15a.5.5,0,0,1-.17,0L182.93,80a.5.5,0,0,1,.34-.94l3.13,1.14a.5.5,0,0,1-.17,1Z"/><path class="cls-1" d="M222.66,84.29a.5.5,0,0,1-.49-.43l-.61-4.5a.5.5,0,0,1,.43-.56.49.49,0,0,1,.56.43l.61,4.5a.5.5,0,0,1-.43.56Z"/><path class="cls-3" d="M242.15,112a.5.5,0,0,1-.17,0l-3.13-1.14a.5.5,0,1,1,.34-.94l3.13,1.14a.5.5,0,0,1-.17,1Z"/><path class="cls-1" d="M82.1,5.26l-.13,0-5.6-1.52a.5.5,0,0,1,.26-1l5.6,1.52a.5.5,0,0,1-.13,1Z"/><path class="cls-1" d="M250.88,76l-.13,0-5.6-1.52a.5.5,0,1,1,.26-1L251,75a.5.5,0,0,1-.13,1Z"/><path class="cls-2" d="M74.1,22.7a.5.5,0,0,1-.38-.83L76.5,18.7a.5.5,0,1,1,.75.66l-2.78,3.17A.5.5,0,0,1,74.1,22.7Z"/><path class="cls-2" d="M253.7,57.57a.5.5,0,0,1-.38-.83l2.78-3.17a.5.5,0,1,1,.75.66l-2.78,3.17A.5.5,0,0,1,253.7,57.57Z"/><path class="cls-3" d="M96.63,39.58a.5.5,0,0,1-.24-.94l3.81-2a.5.5,0,1,1,.47.88l-3.81,2A.5.5,0,0,1,96.63,39.58Z"/><path class="cls-3" d="M234,42.78a.5.5,0,0,1-.42-.23l-2.14-3.4a.5.5,0,1,1,.85-.53l2.14,3.4a.5.5,0,0,1-.16.69A.5.5,0,0,1,234,42.78Z"/><path class="cls-2" d="M205,51.61h-.11L202.13,51a.5.5,0,1,1,.22-1l2.77.62a.5.5,0,0,1-.11,1Z"/><path class="cls-1" d="M126.14,46.81a.5.5,0,0,1-.38-.83l2.8-3.24a.5.5,0,0,1,.76.65l-2.8,3.24A.5.5,0,0,1,126.14,46.81Z"/></g><g id="Confetti-2" data-name="Confetti"><path class="cls-1" d="M133.11,130.94a.5.5,0,0,1-.49-.43L132,126a.5.5,0,0,1,.43-.56.49.49,0,0,1,.56.43l.61,4.5a.5.5,0,0,1-.43.56Z"/><path class="cls-2" d="M108.84,118.34a.5.5,0,0,1-.42-.23l-1.88-3a.5.5,0,1,1,.85-.54l1.88,3a.5.5,0,0,1-.42.77Z"/><path class="cls-2" d="M76,115.12a.5.5,0,0,1-.42-.23l-1.88-3a.5.5,0,0,1,.85-.54l1.88,3a.5.5,0,0,1-.42.77Z"/><path class="cls-3" d="M135,108.68a.5.5,0,0,1-.24-.94l2.94-1.61a.5.5,0,1,1,.48.88l-2.94,1.61A.49.49,0,0,1,135,108.68Z"/><path class="cls-3" d="M152.59,128.6a.5.5,0,0,1-.17,0l-3.13-1.14a.5.5,0,1,1,.34-.94l3.13,1.14a.5.5,0,0,1-.17,1Z"/><path class="cls-1" d="M179,161.74a.5.5,0,0,1-.49-.43l-.61-4.5a.5.5,0,0,1,.43-.56.49.49,0,0,1,.56.43l.61,4.5a.5.5,0,0,1-.43.56Z"/><path class="cls-3" d="M208.5,169.4a.5.5,0,0,1-.17,0l-3.13-1.14a.5.5,0,1,1,.34-.94l3.13,1.14a.5.5,0,0,1-.17,1Z"/><path class="cls-1" d="M48.45,62.71l-.13,0-5.6-1.52a.5.5,0,0,1,.26-1l5.6,1.52a.5.5,0,0,1-.13,1Z"/><path class="cls-1" d="M217.24,133.47l-.13,0-5.6-1.52a.5.5,0,0,1,.26-1l5.6,1.52a.5.5,0,0,1-.13,1Z"/><path class="cls-2" d="M40.45,80.15a.5.5,0,0,1-.38-.83l2.78-3.17a.5.5,0,1,1,.75.66L40.83,80A.5.5,0,0,1,40.45,80.15Z"/><path class="cls-2" d="M220.05,115a.5.5,0,0,1-.38-.83l2.78-3.17a.5.5,0,1,1,.75.66l-2.78,3.17A.5.5,0,0,1,220.05,115Z"/><path class="cls-3" d="M63,87a.5.5,0,0,1-.24-.94l3.81-2a.5.5,0,1,1,.47.88l-3.81,2A.5.5,0,0,1,63,87Z"/><path class="cls-3" d="M200.32,110.23a.5.5,0,0,1-.42-.23l-2.14-3.4a.5.5,0,1,1,.85-.53l2.14,3.4a.5.5,0,0,1-.16.69A.5.5,0,0,1,200.32,110.23Z"/><path class="cls-2" d="M171.36,129.05h-.11l-2.77-.62a.5.5,0,0,1,.22-1l2.77.62a.5.5,0,0,1-.11,1Z"/><path class="cls-1" d="M92.49,94.26a.5.5,0,0,1-.38-.83l2.8-3.24a.5.5,0,1,1,.76.65l-2.8,3.24A.5.5,0,0,1,92.49,94.26Z"/></g><g id="Confetti-3" data-name="Confetti"><path class="cls-1" d="M10.42,29a.5.5,0,0,1-.49-.43l-.61-4.5a.5.5,0,1,1,1-.13l.61,4.5a.5.5,0,0,1-.43.56Z"/><path class="cls-2" d="M75.2,185.79a.5.5,0,0,1-.42-.23l-1.88-3a.5.5,0,0,1,.85-.54l1.88,3a.5.5,0,0,1-.42.77Z"/><path class="cls-2" d="M32.38,178.57a.5.5,0,0,1-.42-.23l-1.88-3a.5.5,0,1,1,.85-.54l1.88,3a.5.5,0,0,1-.42.77Z"/><path class="cls-3" d="M101.38,166.13a.5.5,0,0,1-.24-.94l2.94-1.61a.5.5,0,1,1,.48.88l-2.94,1.61A.49.49,0,0,1,101.38,166.13Z"/><path class="cls-3" d="M29.9,36.71a.5.5,0,0,1-.17,0L26.6,35.54a.5.5,0,1,1,.34-.94l3.13,1.14a.5.5,0,0,1-.17,1Z"/><path class="cls-1" d="M243.38,158.26a.5.5,0,0,1-.49-.43l-.61-4.49a.5.5,0,0,1,1-.13l.61,4.49a.5.5,0,0,1-.43.56Z"/><path class="cls-1" d="M14.81,120.16l-.13,0-5.6-1.52a.5.5,0,1,1,.26-1l5.6,1.52a.5.5,0,0,1-.13,1Z"/><path class="cls-1" d="M183.59,190.92l-.13,0-5.6-1.52a.5.5,0,1,1,.26-1l5.6,1.52a.5.5,0,0,1-.13,1Z"/><path class="cls-2" d="M6.81,137.59a.5.5,0,0,1-.38-.83l2.78-3.17a.5.5,0,0,1,.75.66l-2.78,3.17A.5.5,0,0,1,6.81,137.59Z"/><path class="cls-2" d="M176.41,172.47a.5.5,0,0,1-.38-.83l2.78-3.17a.5.5,0,1,1,.75.66l-2.78,3.17A.5.5,0,0,1,176.41,172.47Z"/><path class="cls-3" d="M29.34,144.48a.5.5,0,0,1-.24-.94l3.81-2a.5.5,0,1,1,.47.88l-3.81,2A.5.5,0,0,1,29.34,144.48Z"/><path class="cls-3" d="M156.68,167.68a.5.5,0,0,1-.42-.23l-2.14-3.4a.5.5,0,0,1,.85-.53l2.14,3.4a.5.5,0,0,1-.16.69A.5.5,0,0,1,156.68,167.68Z"/><path class="cls-2" d="M48.68,37.16h-.11l-2.77-.62a.5.5,0,1,1,.22-1l2.77.62a.5.5,0,0,1-.11,1Z"/><path class="cls-1" d="M58.85,151.71a.5.5,0,0,1-.38-.83l2.8-3.24a.5.5,0,0,1,.76.65l-2.8,3.24A.5.5,0,0,1,58.85,151.71Z"/></g></svg>