<?xml version="1.0" encoding="UTF-8" standalone="no"?>
<svg width="162px" height="76px" viewBox="0 0 162 76" version="1.1" xmlns="http://www.w3.org/2000/svg" xmlns:xlink="http://www.w3.org/1999/xlink">
    <!-- Generator: Sketch 50.2 (55047) - http://www.bohemiancoding.com/sketch -->
    <title>logo</title>
    <desc>Created with Sketch.</desc>
    <defs>
        <polygon id="path-1" points="0.277170003 0.532224634 75.5391816 0.532224634 75.5391816 75.7942362 0.277170003 75.7942362"></polygon>
    </defs>
    <g id="Welcome" stroke="none" stroke-width="1" fill="none" fill-rule="evenodd">
        <g id="Desktop-HD" transform="translate(-121.000000, -40.000000)">
            <g id="logo" transform="translate(121.000000, 40.000000)">
                <g id="Group-3">
                    <mask id="mask-2" fill="white">
                        <use xlink:href="#path-1"></use>
                    </mask>
                    <g id="Clip-2"></g>
                    <path d="M75.5391816,38.1631372 C75.5391816,58.9463386 58.6912199,75.7943003 37.9080185,75.7943003 C17.1251317,75.7943003 0.277170003,58.9463386 0.277170003,38.1631372 C0.277170003,17.3799357 17.1251317,0.531974056 37.9080185,0.531974056 C58.6912199,0.531974056 75.5391816,17.3799357 75.5391816,38.1631372" id="Fill-1" fill="#FFFFFF" mask="url(#mask-2)"></path>
                    <path d="M46,4.4762937 C45.2502198,4.73861905 44.4929983,5.1770299 43.7357768,5.78761993 C41.7239608,7.41385675 40.421147,8.35438175 39.0963071,7.28675066 C38.9698058,7.18548647 38.8438999,7.08061643 38.7102551,6.96823421 C36.8579794,5.42793673 33.7588482,2.84615054 27.204001,5.68305037 C20.6193888,8.53046726 16.3990101,14.3536091 15.6233344,21.6566504 C14.5803689,31.4741688 17.6833697,39.1368934 21.0462188,43.2060913 C20.3779947,44.5513726 18.2810508,48.6542251 16.5255114,50.8691164 C14.5395909,53.3754802 12.5873049,56.0284819 11.5553525,59 C6.23664555,53.0533579 3,45.176987 3,36.5361765 C3,18.0144448 17.872675,3 36.2195203,3 C39.6231475,3 42.9080123,3.5171385 46,4.4762937" id="Fill-4" fill="#F04359" mask="url(#mask-2)"></path>
                    <path d="M72,39.1562096 C72,55.7960422 60.8541176,69.6911889 46,73 C46.1611765,72.6596651 46.3117647,72.2963933 46.4585294,71.9098746 C47.555,69.0188881 48.615,66.8891606 49.6382353,64.8325835 C50.6211765,62.853806 51.5526471,60.9828941 52.3341176,58.7490205 C54.8097059,51.6639804 55.635,45.7967687 52.5173529,36.7676664 C51.6847059,34.3558764 50.1738235,31.5609771 46.1173529,29.2961076 C47.6797059,29.1026933 49.3705882,28.6197773 51.0723529,27.6610745 C53.4232353,26.3390999 55.2058824,23.5835654 56.0861765,19.8922651 C57.0505882,15.8528809 56.7497059,11.3383298 55.3708824,9.15869895 C55.3379412,9.10445614 55.3047059,9.0542428 55.2682353,9 C65.255,14.9292035 72,26.2117068 72,39.1562096" id="Fill-6" fill="#F04359" mask="url(#mask-2)"></path>
                    <path d="M37.3717794,16.5303839 C36.8809566,17.1486485 36.227353,17.5108106 35.4810419,17.5844284 C35.3883344,17.5922269 35.2915961,17.5962821 35.1988885,17.5962821 C33.625341,17.5962821 32.1792275,16.3903229 32.0130361,16.2465187 C31.6880946,15.9660848 31.6493373,15.4760275 31.92777,15.1494265 C32.2062026,14.8225136 32.6933047,14.7835212 33.0182462,15.063955 C33.366132,15.3634172 34.4643596,16.1142562 35.3381049,16.0322161 C35.6704877,16.001334 35.9334174,15.8494194 36.1653413,15.5580676 C36.6294991,14.9744283 36.6217476,14.6515707 36.5560152,14.4141845 C36.4323018,13.9824598 35.9489204,13.4262712 35.1254046,12.7609037 C34.7930218,12.4926355 34.7387615,12.0022662 35.005412,11.6678667 C35.2723724,11.3334673 35.7594745,11.2788778 36.0921675,11.547146 C37.2170602,12.453955 37.8164035,13.2044821 38.0405759,13.9824598 C38.284282,14.8265689 38.0638303,15.6591361 37.3717794,16.5303839 M54.3493499,10.345554 C50.6683338,12.8195484 47.6102255,8.98393695 46.9529012,8.0658982 C46.941119,8.07743997 46.9296468,8.0855504 46.9181747,8.09303696 C44.9809283,9.65304776 42.5683621,11.594249 40.1517651,9.64899254 C40.0162695,9.54012556 39.8773632,9.42346008 39.7341162,9.30679461 C38.4929514,8.27988888 36.9541305,7 34.3211126,7 C32.9794889,7 31.3557118,7.33471137 29.3412609,8.20221588 C26.3448542,9.49333459 19.2652855,13.5700755 18.2058151,23.516587 C17.1426241,33.4980358 20.378706,41.1686348 23.773538,45.0432387 C26.6425105,47.4355048 29.6544201,48.4468135 32.0400112,47.8166952 C34.1084123,47.2720484 35.7169965,45.518011 36.8189449,42.6082368 C39.8076,34.719592 28.6219248,24.1117681 28.5099937,24.0029011 C28.1968345,23.7112374 28.1773008,23.2208681 28.4712363,22.9058089 C28.7611412,22.5907498 29.2482433,22.5714095 29.5617125,22.8668165 C29.6851159,22.9797387 32.5850943,25.7142027 35.1368768,29.5460709 C37.0393966,32.4127974 38.2145188,35.0733317 38.6668943,37.5086455 C43.3493998,35.408043 46.1678328,32.7587386 47.0880868,31.8060745 C45.7309602,30.7205241 43.8982036,29.6936184 41.3733961,28.8145721 C38.9608299,28.4723742 37.3407736,27.7018829 37.205588,27.6360636 C36.8536715,27.4648087 36.6834493,27.0524243 36.8111934,26.6790324 C36.9389376,26.3056405 37.3255807,26.0916498 37.708193,26.1774333 C39.1617479,26.5002909 40.4649243,26.8658843 41.6363259,27.2623598 C43.8982036,27.5736757 46.9181747,27.4804057 49.9375256,25.8620622 C52.0254604,24.7381432 53.6303239,22.3146831 54.4498089,19.0352603 C55.2308466,15.9080641 55.1651142,12.4187058 54.3493499,10.345554" id="Fill-8" fill="#FFFFFF" mask="url(#mask-2)"></path>
                    <path d="M49.762929,57.4640447 C48.9773211,59.6057913 48.025509,61.4304144 47.0162361,63.3629152 C45.9720541,65.3577248 44.7894717,67.619129 43.6068892,70.5879389 C43.2754078,71.4153121 42.9405281,72.0762187 42.6053395,72.605998 C42.081395,72.6869063 41.5497272,72.7566549 41.0143522,72.8105938 C40.5713472,63.4559133 44.3350363,57.6574808 44.3850828,57.5799824 C44.6238854,57.2281395 44.5278083,56.7488892 44.1768643,56.509264 C43.8225221,56.2696389 43.3449169,56.3663569 43.1061144,56.7181998 C42.9287888,56.9847944 38.9803598,63.0113823 39.4734114,72.9342813 C38.7835717,72.9807804 38.0903337,73 37.3890636,73 C36.7999349,73 36.2142044,72.9845003 35.6287828,72.9538109 C36.9460586,61.2716976 29.8385157,56.6949503 29.5110503,56.4937644 C29.1489849,56.2696389 28.6750869,56.3818566 28.4517308,56.7451693 C28.2283747,57.1087919 28.3398983,57.5840123 28.7022727,57.8081377 C28.7714729,57.8506069 35.3013175,62.0603216 34.0878421,72.8415932 C31.4335191,72.5904983 28.867859,72.0337496 26.4214456,71.2141262 C28.2592677,68.0986893 28.933352,65.1645987 28.4325772,62.4583535 C27.6466603,58.2142295 24.2450367,56.1806707 24.1023113,56.0957324 C23.7325225,55.8830767 23.2663478,56.0067642 23.050715,56.3737968 C22.8350821,56.7414493 22.958345,57.2126398 23.3241176,57.4293254 C23.3513034,57.448545 26.2753219,59.2192291 26.9222205,62.7640073 C27.3615183,65.1565389 26.6951572,67.8085352 24.9459979,70.6769071 C20.427285,68.9220326 16.3667146,66.2393469 13,62.8604154 C13.9014565,59.6984794 16.004958,56.8456072 18.150474,54.1551717 C19.9382494,51.9132971 21.9605025,48.070615 22.8233428,46.3622396 C25.1925237,48.1443935 27.6580907,49.0911143 29.8885623,49.0911143 C30.5203233,49.0911143 31.1329306,49.0139259 31.7186611,48.859239 C34.2920445,48.1828327 36.2450973,46.1263344 37.531789,42.735933 C37.7628684,42.1329953 37.9207314,41.503088 38.0211335,40.8573711 C43.8110917,38.5494678 47.3477175,35.3720322 48.692179,34 C49.2738934,34.8695324 49.6628358,35.727905 49.955701,36.5394686 C53.083922,45.1715537 52.3017123,50.5524247 49.762929,57.4640447" id="Fill-10" fill="#FFFFFF" mask="url(#mask-2)"></path>
                    <path d="M34.5085237,16.9885647 C34.4215381,16.9960879 34.3307706,17 34.2434942,17 C32.7670675,17 31.4105004,15.8366094 31.2542756,15.6978812 C30.9496808,15.4276472 30.9133156,14.9545872 31.1745631,14.6395148 C31.4355197,14.3241414 31.8928483,14.2865254 32.1977341,14.5570603 C32.524148,14.8459519 33.5543011,15.5702875 34.3744088,15.4911432 C34.6862767,15.4613512 34.9329781,15.3147989 35.1505874,15.0337315 C35.5860969,14.4706938 35.578533,14.1592325 35.5168576,13.9302257 C35.4007799,13.5137403 34.9475242,12.9771843 34.1748367,12.3353033 C33.8626779,12.0765045 33.8117666,11.6034445 34.0622501,11.2808489 C34.3127335,10.9582532 34.7694803,10.9055907 35.081639,11.1643894 C36.1373932,12.0391894 36.6997445,12.763224 36.9100808,13.5137403 C37.1387451,14.3280535 36.9318999,15.1312324 36.2825631,15.9717264 C35.8217434,16.5684682 35.2084808,16.9175455 34.5085237,16.9885647" id="Fill-12" fill="#2A2626" mask="url(#mask-2)"></path>
                    <path d="M44.6904147,72.3145822 C44.8592219,71.9757302 45.0171883,71.6145771 45.1708184,71.2301938 C46.3258317,68.341279 47.4421278,66.2130777 48.5197066,64.1579742 C49.5548512,62.1806147 50.5357917,60.3110436 51.3584561,58.0787707 C53.9655215,50.9988077 54.8346465,45.1358005 51.5517326,36.1131685 C50.6748641,33.7031067 49.0837396,30.9102103 44.811832,28.6472735 C46.4571607,28.4539977 48.2378449,27.9711181 50.0299894,27.0131023 C52.5057259,25.6923847 54.3827387,22.9385151 55.3097848,19.24986 C56.3254159,15.2133704 56.0088636,10.7020544 54.5568115,8.52398551 C54.5273864,8.47814446 54.497032,8.43509105 54.4657485,8.39048896 C64.9652499,14.3300012 72.0690928,25.6003929 72.0690928,38.5 C72.0690928,55.0963154 60.3123645,68.9963723 44.6904147,72.3145822 M13.0531477,62.9174785 C13.9603705,59.7659069 16.0644213,56.9219039 18.2112159,54.2395835 C20.0033604,51.9992575 22.0312157,48.1600703 22.8963141,46.4528012 C25.2716955,48.2334779 27.7437151,49.1797237 29.980024,49.1797237 C30.6134384,49.1797237 31.227649,49.1025992 31.8146027,48.9480406 C34.3947209,48.2718852 36.3531948,46.2170915 37.6429441,42.8298103 C37.8749379,42.2270625 38.0332141,41.5976774 38.1335692,40.9524957 C43.9386803,38.6468152 47.4845619,35.4720134 48.832542,34.1008087 C49.4157788,34.9699301 49.8057391,35.8272814 50.0993708,36.6381723 C53.2357786,45.2631023 52.4515217,50.6395131 49.9060942,57.545404 C49.1184303,59.6856851 48.1641272,61.5084859 47.1522129,63.4396947 C46.105608,65.432541 44.9199306,67.6920707 43.7342532,70.6584197 C43.402214,71.4844877 43.0664579,72.1445368 42.7307018,72.6732574 C42.2025984,72.753789 41.6701586,72.8216213 41.1346215,72.8776837 C40.6907668,63.5319962 44.4643059,57.7386798 44.5141737,57.6612456 C44.753911,57.3100041 44.6572727,56.831151 44.30572,56.5914148 C43.9504504,56.352298 43.4712856,56.4486261 43.2321678,56.8001774 C43.0543781,57.066551 39.095306,63.0881434 39.589648,73.0031271 L39.589648,73.0037465 C38.8980028,73.0449415 38.2020214,73.0687913 37.5001549,73.0687913 C36.9082454,73.0687913 36.319743,73.0536142 35.7346478,73.0241892 C35.7346478,73.0235697 35.7349575,73.0229502 35.7349575,73.0223307 C37.0559905,61.3502105 29.9298464,56.7769471 29.6015241,56.5759279 C29.2382013,56.352298 28.7633728,56.464113 28.5391225,56.8271245 C28.3151818,57.1904457 28.427307,57.6652721 28.79032,57.8895216 C28.8600111,57.9316458 35.4063254,62.137871 34.1902937,72.9095866 C31.5308826,72.6559122 28.9585078,72.1005541 26.5081699,71.2763446 C28.3470849,68.1662777 29.0216944,65.2370971 28.5199187,62.5358828 C27.731945,58.294967 24.321419,56.2634035 24.1786298,56.1782259 C23.8078733,55.9660562 23.3404785,56.0893315 23.1242813,56.4563695 C22.9077744,56.8234076 23.0313599,57.2945172 23.3983995,57.5107135 C23.4253468,57.5302269 26.3570177,59.2991336 27.005919,62.8409735 C27.445747,65.2296634 26.778881,67.8769836 25.0288608,70.7398805 C20.4995609,68.9818146 16.428983,66.2973261 13.0531477,62.9174785 M37.5001549,3.93151847 C41.0367443,3.93151847 44.4506774,4.46612413 47.6663781,5.45759152 C46.8898648,5.72830145 46.105608,6.17865871 45.3216609,6.80494645 C43.2281412,8.48124183 41.8724176,9.45071791 40.4934637,8.34991344 C40.3621347,8.24553215 40.2308058,8.13774376 40.0917334,8.02190221 C38.1645431,6.43419154 34.9392404,3.77293325 28.1181884,6.69684832 C21.2664723,9.63222366 16.8746961,15.6346124 16.0675187,23.1624548 C14.9821964,33.2818647 18.2112159,41.180462 21.7106367,45.3749173 C21.0152748,46.7619185 18.83317,50.9910643 17.006025,53.2738243 C14.9431694,55.8533121 12.915624,58.5824027 11.8402133,61.6385754 C6.30581332,55.5073361 2.93121693,47.3906841 2.93121693,38.5 C2.93121693,19.4387994 18.4388734,3.93151847 37.5001549,3.93151847 M36.5848788,27.4148309 C36.7199246,27.4804951 38.3383061,28.2455449 40.7483781,28.5850164 C43.2705753,29.4581643 45.1014371,30.4778178 46.4571607,31.555392 C45.5378581,32.5016378 42.7223389,35.1319224 38.0446744,37.2176898 C37.5927666,34.7998846 36.4185495,32.1581397 34.5183064,29.3113491 C31.969162,25.5068524 29.0721817,22.7913902 28.9485962,22.6795752 C28.6357607,22.3862545 28.1491622,22.4051484 27.8595571,22.7182923 C27.5659254,23.0311264 27.5851292,23.5177229 27.8982744,23.8076365 C28.0100898,23.9154249 39.1842008,34.4483334 36.1983257,42.2812664 C35.0978263,45.170491 33.4909052,46.9121408 31.4243327,47.4529412 C29.0415176,48.0789192 26.0324122,47.0747526 23.1667155,44.6993814 C19.7753932,40.852141 16.5426569,33.2354042 17.6047488,23.3244471 C18.6631238,13.4481806 25.7350636,9.40054055 28.7283724,8.11823034 C30.7407407,7.2568524 32.3631488,6.92481458 33.7033855,6.92481458 C36.3336813,6.92481458 37.8709114,8.1953548 39.1107929,9.21500823 C39.2535821,9.33084978 39.3926545,9.44669133 39.5280101,9.5550992 C41.9417989,11.4863079 44.3521807,9.55912578 46.2871145,8.01013221 C46.2985748,8.00238879 46.3103448,7.99464537 46.3221149,7.98318511 C46.9784499,8.89443068 50.0337063,12.702954 53.7109168,10.2464317 C54.5258377,12.3052519 54.5915021,15.7696577 53.8112719,18.8750785 C52.9923244,22.1310314 51.3894299,24.5373763 49.3036536,25.6536676 C46.2871145,27.2602722 43.2705753,27.3531933 41.011036,27.044076 C39.8408455,26.6500908 38.5390164,26.2870793 37.0869643,25.9665018 C36.7044377,25.8816339 36.3181944,26.0938036 36.190892,26.4648682 C36.0632799,26.8356231 36.2333261,27.2447854 36.5848788,27.4148309 M74,38.5 C74,18.3417118 57.6585286,2 37.5001549,2 C17.3417811,2 1,18.3417118 1,38.5 C1,48.3508681 4.90393877,57.2886322 11.2470649,63.8550517 C11.2470649,63.8550517 11.2473747,63.8550517 11.2473747,63.8553614 C14.7941854,67.526981 19.1038811,70.4564714 23.9215472,72.3882996 C23.9218569,72.3886093 23.9218569,72.3886093 23.9221666,72.3886093 C27.3729586,73.7725132 31.0842403,74.6441125 34.9618513,74.9104861 C35.0392858,74.9157516 35.1167203,74.9203977 35.1941549,74.9253534 C35.4915034,74.9436279 35.7894715,74.958805 36.0886784,74.9699555 C36.1846972,74.9739821 36.280716,74.9783184 36.3773543,74.9811061 C36.750279,74.9925663 37.1241328,75 37.5001549,75 C37.9412219,75 38.379811,74.9894689 38.8171612,74.9736724 C38.9063658,74.970575 38.9958801,74.9671679 39.0850846,74.9637608 C39.5267711,74.9445571 39.9669089,74.9194684 40.4045688,74.8850877 C40.4123123,74.8844682 40.4200558,74.883539 40.4277992,74.8829195 C40.8815655,74.84699 41.3322344,74.801149 41.7807351,74.7484937 C41.8141869,74.7447769 41.8476386,74.7413698 41.8810903,74.7370335 C42.3426,74.6822101 42.8016319,74.6184043 43.257876,74.5462356 L43.2581858,74.5462356 C60.6806431,71.7849324 74,56.6988934 74,38.5" id="Fill-14" fill="#2A2626" mask="url(#mask-2)"></path>
                </g>
                <path d="M104.352597,63.386956 C104.785022,63.386956 105,63.5833171 105,63.9984805 C105,65.2212179 104.870766,66.2027117 104.611682,66.923014 C103.639189,69.5424085 102.257714,71.5505903 100.486069,72.9257412 C98.7144244,74.3012039 96.2953769,75 93.2064109,75 C89.6859457,75 86.7262135,74.1706082 84.3287563,72.5327074 C81.9312992,70.8957416 80.1389895,68.6690692 78.9931573,65.8751315 C78.3241641,64.2821132 78,61.9245334 78,58.8466513 C78,55.9439358 78.5616582,53.4118128 79.6846663,51.2512175 C80.8730623,48.915144 82.6231166,46.9727276 84.9339037,45.3797094 C87.2453078,43.7854443 89.8583603,43 92.7749118,43 C95.6482825,43 98.2829253,43.8948455 100.636893,45.6851599 C102.991787,47.4745393 104.417677,49.6133167 104.914255,52.1233101 C104.979335,52.582421 105,52.9321308 105,53.1281802 C105,53.6739393 104.805995,53.9793899 104.438342,54.0015195 C104.093513,54.0015195 103.575035,54.0233374 102.883526,54.0881677 C102.192634,54.1539331 101.652875,54.1975689 101.242041,54.2193868 C99.1687476,54.30697 98.1095854,54.3509175 98.0889204,54.3509175 C97.5914164,54.4375657 97.397103,53.236958 97.0945293,52.8663654 C96.6846206,52.2766587 96.101372,51.796665 95.3241184,51.4036311 C94.5456311,51.0102856 93.8115583,50.8142362 93.1206662,50.8142362 C91.1550166,50.8142362 89.490707,51.5999922 88.1302048,53.1939455 C86.7693942,54.7869638 86.0785022,56.6639264 86.0785022,58.8466513 C86.0785022,61.4005922 86.7262135,63.5184868 88.0228698,65.1554525 C89.3192177,66.7924183 91.1550166,67.6218101 93.5524738,67.6218101 C94.3948069,67.6218101 95.2590388,67.3381774 96.1871166,66.7924183 C97.1164281,66.2466591 97.5914164,65.5914988 97.656496,64.8718198 C97.7212671,64.3478786 97.6777779,64.4345268 97.7647563,64.1078817 C97.807937,63.9545331 97.8720913,63.8669498 97.9371709,63.8460669 C98.0889204,63.8239374 98.3261061,63.6924066 98.779504,63.6924066 C101.285221,63.5833171 102.948606,63.4745393 103.747758,63.386956 L104.352597,63.386956 Z" id="Fill-16" fill="#2A2626"></path>
                <path d="M115.896136,66.0013542 C116.615253,65.9797463 117.155154,65.9581383 117.516158,65.9581383 C118.527868,65.9581383 118.662442,66.0655607 118.775175,66.822765 C118.933195,67.9253878 119,69.8710294 119,72.6596897 L119,73.2644036 C119,73.5888316 118.933195,73.7626212 118.775175,73.826519 C118.617156,73.8916516 118.212793,73.9132595 117.516158,73.9132595 L116.976579,73.9132595 C113.669409,73.978392 111.149768,74 109.373332,74 L108.517714,74 C106.898656,74 106.044965,73.7407046 106.044965,72.5294247 C106.044965,71.3187621 106.044965,68.9628781 106.021519,65.4611555 C106,61.9581981 106,59.3214108 106,57.5702408 C106,56.7269133 106,55.6245992 106.021519,54.2191564 C106.044965,52.8140223 106.044965,51.8416645 106.044965,51.3011571 C106.11177,48.3387071 106.156735,45.8531755 106.22354,43.8649354 C106.22354,43.4969829 106.494614,43.2809034 107.034193,43.2160795 C107.956616,43.0638978 109.08106,43 110.362561,43 L111.082963,43 C112.139638,43 112.680502,43.3244279 112.746986,43.9504411 C112.927809,46.0914803 113.062061,49.571595 113.175116,54.4136279 C113.286886,59.2562783 113.443942,62.866658 113.646927,65.222542 C113.714695,65.7630494 113.93952,66.0439528 114.321079,66.0439528 C114.658637,66.0439528 115.176697,66.0229622 115.896136,66.0013542" id="Fill-18" fill="#2A2626"></path>
                <path d="M139.521954,43.5234386 C139.631222,44.4149004 139.695789,45.8956969 139.695789,47.9204468 C139.717208,49.1168334 139.782707,51.6637785 139.870245,55.5821078 C139.956231,59.5004371 140,62.4834774 140,64.5505002 C140,68.2298009 139.217744,70.906984 137.629949,72.5394658 C136.044017,74.17288 133.325987,75 129.47834,75 C127.717332,75 126.064971,74.5421467 124.520946,73.6494415 C122.978162,72.7579796 121.934843,71.6256241 121.391299,70.2545508 C120.456316,67.9904614 120,64.3552987 120,59.3701991 C120,58.2167071 120.021729,56.4965712 120.086297,54.2110345 C120.152726,51.9248762 120.173524,50.3579796 120.173524,49.4873434 C120.173524,48.9430792 120.195254,48.0938902 120.260752,46.9400874 C120.326251,45.7862846 120.34798,44.9374065 120.34798,44.3505585 L120.34798,44.3070423 C120.34798,43.6751238 120.630772,43.3266829 121.173074,43.3049247 C123.457139,43.1091015 125.10919,43 126.087011,43 C126.782039,43 127.000264,43.3266829 127.000264,44.2632152 L127.000264,48.1377173 C127.000264,49.4652744 126.978224,51.7293638 126.934765,54.9296746 C126.891307,58.1290529 126.869267,60.3278679 126.869267,61.5469451 C126.869267,63.1359106 127.064831,64.3770568 127.43454,65.269762 C127.80425,66.1615347 128.565087,66.5973191 129.695634,66.5973191 C131.086933,66.5973191 131.781962,65.8137154 131.956417,64.9430792 C132.043955,64.5072948 132.108212,63.8327926 132.130873,62.9400874 C132.21748,60.8718213 132.260938,58.8259349 132.260938,56.8014959 C132.260938,55.2345993 132.21748,53.078679 132.151981,50.3362215 C132.087414,47.593764 132.043955,45.8739388 132.043955,45.1773677 C132.043955,44.8289267 132.000186,44.241457 132.000186,44.1320447 C132.000186,43.5016804 132.239209,43.2831666 133.217961,43.2185138 C135.543622,43.0655852 137.260861,43 138.391408,43 C139.109407,43 139.500225,43.1746867 139.521954,43.5234386" id="Fill-20" fill="#2A2626"></path>
                <path d="M148.724128,68.6878961 C148.724128,68.9510183 148.873447,69.1261198 149.15132,69.2144537 C149.515303,69.3231482 150.091813,69.389242 150.862223,69.389242 L151.203915,69.389242 C151.802716,69.389242 152.252504,69.3673151 152.573432,69.3021611 C153.662938,69.1261198 154.369224,68.2487327 154.369224,67.0208293 C154.369224,64.9362126 152.979249,63.9053376 150.220367,63.9053376 C149.194375,63.9053376 148.681073,64.1468462 148.681073,64.6073099 C148.681073,65.0245465 148.681073,65.6817254 148.702754,66.6255196 C148.724128,67.5690005 148.724128,68.2264926 148.724128,68.6437292 L148.724128,68.6878961 Z M148.681073,51.1818149 L148.681073,51.7960799 C148.681073,52.9372156 148.702754,54.1438187 148.767183,55.4378159 C148.767183,55.7670318 149.045056,55.9198933 149.578511,55.9198933 C151.183457,55.9198933 152.252504,55.5039097 152.787181,54.6919898 C153.192997,54.099965 153.385065,53.4412199 153.385065,52.7179472 C153.385065,51.6864456 153.129483,51.0505671 152.593891,50.7655181 C152.060131,50.4804691 151.161776,50.3482815 149.878981,50.3482815 C148.916197,50.3482815 148.681073,50.4143753 148.681073,51.1818149 Z M142.372747,64.2348668 C142.308317,60.4174028 142.266483,57.5214928 142.266483,55.5687505 C142.266483,54.450168 142.243887,52.5857596 142.223428,49.9529718 C142.201137,47.3211237 142.180373,45.4351016 142.180373,44.2942791 C142.180373,43.5255865 142.756883,43.1531434 143.891582,43.1531434 C145.580194,43.1531434 146.991545,43.1753834 148.146702,43.2405375 C149.300638,43.3066313 150.58435,43.4165788 152.017381,43.5916803 C153.450411,43.7667818 154.604347,44.0521441 155.524382,44.4471406 C157.341549,45.2368203 159.180396,46.3773296 159.97157,48.3961657 C160.378608,49.4044874 160.570371,50.5672367 160.570371,51.8841005 C160.570371,54.4069408 159.843932,56.5125446 158.389221,58.2457052 C158.197153,58.5088274 157.940655,58.8599702 157.662477,59.2981939 C157.598352,59.3642876 157.577588,59.4084546 157.577588,59.4745484 C157.577588,59.6496499 157.684157,59.8028246 157.918975,59.956939 C159.031077,60.6805249 159.97157,61.6240058 160.720911,62.7867552 C161.469031,63.9495045 161.854389,65.2435017 161.854389,66.7135402 L161.854389,67.7221751 C161.832708,69.7403848 161.169478,71.4296917 159.865307,72.8117095 C158.560831,74.1934141 156.849927,74.8960129 154.711527,74.918253 L153.59973,74.918253 C150.091813,74.918253 146.991545,74.8079923 144.318773,74.5671102 C144.211594,74.5671102 143.762722,74.5229433 143.613404,74.5010164 C143.463169,74.4787763 143.163921,74.4126826 143.014603,74.3475285 C142.779479,74.237581 142.60787,74.0405526 142.52176,73.6894099 C142.501606,73.6013892 142.47901,73.3598807 142.47901,72.9438971 C142.47901,70.9473011 142.436261,68.0513911 142.372747,64.2348668 Z" id="Fill-22" fill="#2A2626"></path>
                <path d="M108.146591,27.2000938 L108.146591,28.6496512 C108.146591,29.2748217 108.195715,29.6748182 108.316846,29.8002276 C108.438282,29.9246988 108.755297,29.9997568 109.317015,29.9997568 C110.487745,29.9997568 112.073126,29.8996794 113.317083,29.8996794 C113.683222,29.8996794 114.268434,29.8996794 115.07394,29.9246988 C115.878225,29.9497181 116.463437,29.9497181 116.829576,29.9497181 C117.244533,29.9497181 117.51273,30.400066 117.609757,31.2998236 C117.878869,33.0255319 118,34.9004179 118,36.899775 C118,37.4251809 117.682985,37.7751388 117.024545,37.8999227 C116.561684,37.9749807 116.219039,38 115.999661,38 L111.219717,38 C106.950537,38 103.633929,37.8495713 101.268366,37.5496521 C100.462861,37.4502002 100.048819,36.9247943 100.048819,35.949666 C100.023189,34.7249698 100,32.675574 100,29.8496408 C100,28.274674 100.048819,26.1248882 100.145845,23.3499318 C100.243788,20.5740372 100.291386,18.4242514 100.291386,16.899636 C100.291386,16.2744655 100.291386,15.1492212 100.268197,13.5492351 C100.243788,11.9489362 100.243788,10.7242401 100.243788,9.84950179 C100.243788,7.67438386 100.366139,5.52365977 100.585212,3.34885458 C100.706648,2.22454848 100.902227,2 101.414212,2 C102.268536,2 103.584805,2 105.390786,2.02376836 C107.19524,2.04878769 108.560633,2.04878769 109.464081,2.04878769 C110.268366,2.04878769 111.487914,2.04878769 113.122419,2.02376836 C114.756924,2 115.927349,2 116.682815,2 C117.34156,2 117.682985,2.19952915 117.707394,2.59983842 C117.829745,4.52476305 117.902363,5.92428178 117.902363,6.7496069 L117.902363,9.09892191 C117.902363,10.1747531 117.853239,10.4493402 117.268027,10.4493402 C116.85307,10.4493402 116.219039,10.4746723 115.390955,10.5247109 C114.56104,10.5747496 113.951114,10.5997689 113.560871,10.5997689 C113.048886,10.5997689 112.243381,10.625101 111.195308,10.6488694 C110.146015,10.6738887 109.317015,10.698908 108.731803,10.698908 C108.268027,10.698908 108.048649,10.8746688 108.048649,11.2499587 C108.048649,12.7245354 108.097773,13.6242931 108.097773,14.9493793 C108.097773,16.0752491 108.414788,16.2494462 109.65783,16.2494462 C110.243957,16.2494462 111.146489,16.2244269 112.341323,16.1493689 C113.537377,16.0752491 114.463098,16.0502298 115.07394,16.0502298 C115.731464,16.0502298 115.804997,16.1493689 115.804997,16.9499874 L115.804997,21.7999844 L115.804997,22.1993554 L115.804997,23.1494644 C115.804997,24.025141 115.633522,24.12428 114.194901,24.1996508 C113.779944,24.1996508 112.903041,24.2246701 111.585856,24.2496894 C110.268366,24.2747088 109.389633,24.3000408 108.975591,24.3000408 C108.268027,24.3754116 108.146591,24.3754116 108.146591,25.2501499 L108.146591,27.2000938 Z" id="Fill-25" fill="#2A2626"></path>
                <path d="M125.672427,36.5524798 C125.672427,35.927251 125.648876,35.0037737 125.62349,33.7804863 C125.599939,32.5575113 125.574247,31.6337217 125.574247,30.9597738 C125.574247,29.137491 125.599939,26.4157782 125.648876,22.8202441 C125.697201,19.2262715 125.72167,16.4545904 125.72167,14.5317464 C125.72167,13.4093326 125.697201,12.5355114 125.62349,11.9365159 C125.551002,11.2119751 125.354641,10.9377738 124.646276,10.9377738 C122.713565,10.862509 121.467503,10.7875565 120.880869,10.6873075 C120.171586,10.6129796 120.048937,10.412794 120.048937,9.68950231 C120.025386,8.16578036 120,5.96904739 120,3.09805418 C120,2.47407459 120.196054,2.1492804 120.586634,2.1492804 L122.788194,2.1492804 C123.790794,2.1492804 125.256461,2.12429624 127.163481,2.0743279 C129.070806,2.02498417 130.489677,2 131.44334,2 C132.885456,2 135.038079,2.02498417 137.897538,2.09931207 C138.875669,2.12429624 139.439058,2.22454521 139.609726,2.37382561 C139.780395,2.52404292 139.878575,2.97375795 139.903043,3.74701795 C139.976755,6.41907472 140,8.16578036 140,9.04022625 C140,10.0383438 139.878575,10.6129796 139.609726,10.7372759 C139.390121,10.8375248 139.121272,10.8874932 138.826732,10.8874932 C138.508946,10.8874932 137.971249,10.862509 137.213947,10.8375248 C136.455421,10.8125407 135.916807,10.7875565 135.599021,10.7875565 C135.061324,10.7875565 134.743539,10.7875565 134.671051,11.0367736 C134.597339,11.2372715 134.57287,11.2372715 134.57287,11.6610655 L134.57287,12.1357647 C134.450222,15.3065679 134.37651,18.7762442 134.37651,22.5707147 L134.37651,30.8595248 C134.37651,31.4838167 134.37651,32.4822465 134.402202,33.8557511 C134.425753,35.2292558 134.425753,36.2279979 134.425753,36.9010089 C134.425753,37.6255498 134.084111,38 133.399602,38 L126.796758,38 C126.039456,38 125.672427,37.5749568 125.672427,36.7017602 L125.672427,36.5524798 Z" id="Fill-27" fill="#2A2626"></path>
                <path d="M151.101369,12.1874192 C151.101369,14.0236912 152.583398,15.493873 154.920697,17.1337736 C156.10129,17.9428484 156.854406,18.5549391 157.231278,18.9470692 C158.161043,19.8529512 159.116896,21.0036081 160.196593,23.3542447 C160.723711,24.5306352 161,25.6322759 161,26.6361903 C161,28.2283001 160.624071,29.8939342 159.844552,31.6076656 C159.066291,33.322316 157.884754,34.8160869 156.251222,36.0892845 C154.618004,37.3630948 152.809395,38 150.798991,38 C149.015213,38 147.482893,37.5830553 146.201402,36.7755123 C144.918968,35.9667438 143.588128,34.7667642 142.256031,33.199469 C142.029405,32.9056777 141.628016,32.0978283 141.050292,30.7998162 C141.025146,30.7753081 141,30.7017836 141,30.6031384 C141,30.4079924 141.050292,30.2603309 141.150246,30.1632174 C142.633218,28.7175437 143.739317,27.8116618 144.467287,27.420757 C144.669082,27.3221118 144.844473,27.2730955 145.019551,27.2730955 C145.396737,27.2730955 145.69943,27.3962489 145.975719,27.6652257 C147.080561,28.6204303 148.362052,29.2573354 149.845023,29.623732 C150.171918,29.6972565 150.421805,29.7217646 150.547848,29.7217646 C151.327366,29.7217646 151.879945,29.4772959 152.206525,28.9868269 C152.583398,28.4727687 152.758789,27.9342025 152.758789,27.3711281 C152.758789,27.0528286 152.684295,26.7345292 152.558252,26.440738 C152.281963,25.7793247 151.829339,25.0692014 151.201009,24.261352 C150.572993,23.4522772 149.970124,22.8401865 149.3924,22.3757574 C148.964922,22.0081353 148.31176,21.4931581 147.482893,20.7836476 C146.653083,20.0732181 145.999921,19.5591599 145.572129,19.1915379 C144.969259,18.676867 144.517578,18.2856559 144.216144,18.0647764 C142.406277,16.6938525 141.50323,14.5634829 141.50323,11.6488529 C141.50323,9.86129076 141.904305,8.34209272 142.682566,7.14211315 C143.462085,5.94243992 144.592387,4.79178297 146.02601,3.71373136 C147.508039,2.56307441 149.468151,2 151.90509,2 C154.744048,2 157.106492,2.46504187 158.940247,3.41994009 C159.443477,3.68922323 159.69462,3.9830145 159.69462,4.30162026 C159.69462,4.37514467 159.66916,4.52249983 159.593723,4.79178297 C159.090493,6.28524746 158.638812,7.80352645 158.237738,9.34661992 C158.035943,10.0570495 157.558173,10.4243652 156.830203,10.4243652 C156.653869,10.4243652 156.20093,10.3508408 155.447815,10.2031792 C154.694699,10.0570495 154.240818,9.98321874 154.06574,9.98321874 C152.055022,9.98321874 151.101369,10.4969705 151.101369,12.1874192" id="Fill-29" fill="#2A2626"></path>
                <path d="M94.657761,15.3806104 C93.7589044,16.028593 92.6242122,15.9726098 92.1226807,15.2562719 C91.6214539,14.5393154 91.9435188,13.43326 92.8423754,12.7852773 C93.7409272,12.137604 94.8759241,12.1932779 95.3774556,12.9102344 C95.8786824,13.6265723 95.5566175,14.7326277 94.657761,15.3806104 M91.5516782,8.49962197 C92.3621727,7.4467661 93.6269705,7.07498797 94.3762208,7.66946182 C95.1257758,8.26393567 95.0758054,9.59980067 94.2650063,10.6526565 C93.4542072,11.7055124 92.1894094,12.0772905 91.4401591,11.4825074 C90.6909088,10.8883428 90.7408791,9.55247783 91.5516782,8.49962197 M89.3831486,17.0675304 C88.2012284,17.0987697 87.4044454,16.1959241 87.2143144,15.8773455 C87.024488,15.5590762 87.1116314,15.4183449 86.6954151,15.1520379 C86.2791988,14.885731 86.3303879,15.1155406 85.184422,14.7762389 C84.0381513,14.4366279 83.7812916,13.2888171 83.7812916,13.2888171 C83.8894591,12.1775036 84.7273762,11.1391848 86.1719454,10.6854423 C87.6165146,10.2320091 88.9011178,10.6600797 89.7338551,11.1923844 C90.5665924,11.7249983 91.0647722,13.4205787 91.18269,14.4799299 C91.3009125,15.5389718 90.5656783,17.0366005 89.3831486,17.0675304 M83.2770178,8.10402777 C83.4647113,7.00106537 84.308113,6.22874424 85.161265,6.37813595 C86.0147217,6.52752767 86.5543403,7.54264898 86.3669516,8.64530208 C86.1795628,9.74795519 85.3358564,10.5205856 84.4827044,10.3711939 C83.6295524,10.2214929 83.0896291,9.20668087 83.2770178,8.10402777 M87.6475937,6.4214379 C88.2329169,5.22444842 89.3980788,4.6018283 90.250012,5.03113616 C91.1019453,5.46044402 91.3179755,6.77867895 90.7323476,7.97597773 C90.1470244,9.17327651 88.9818625,9.79527803 88.1299293,9.36627947 C87.2783008,8.93697161 87.0622705,7.61842738 87.6475937,6.4214379 M90.1823693,2 L87.7466203,2 C84.9202495,2 82.6066841,2.12310124 80.7800247,2.34610626 L80.6334654,2.34610626 C80.2190772,2.41971957 80,2.61798062 80,2.93934291 L80,3.08749742 C80.6578411,12.7803285 80.9744215,22.6460581 80.9744215,32.6593237 C80.9744215,34.6626572 80.9987972,36.1210049 81.0722293,37.0108599 C81.0722293,37.4562513 81.1456613,37.7281256 81.3891143,37.8026668 C81.5112978,37.8274108 81.5835111,37.8509176 81.6078868,37.8756616 C81.6813189,37.9010241 82.2166717,37.9010241 82.3388553,37.9010241 C83.0201581,37.9010241 84.0189554,37.9254588 85.3590134,37.9505121 C86.6987668,37.975256 87.6722742,38 88.3310294,38 C88.7445034,38 88.9644948,37.7776136 88.9644948,37.3074782 C88.9644948,37.1843769 88.9154385,36.7389855 88.9154385,36.6149564 C88.8901487,35.6505602 88.8176307,34.1674686 88.696666,32.1644443 C88.5744824,30.1623479 88.5010504,28.6294591 88.4279231,27.615575 C88.3544911,27.0223383 88.3310294,26.3295072 88.3310294,25.5380095 C88.3310294,25.340367 88.3544911,25.2166472 88.4035473,25.1430339 C88.5010504,25.0190047 89.1345158,24.9200289 89.4020399,24.7969276 C92.252177,23.7085023 94.5666565,21.9782803 96.3445644,19.5793525 C98.1221675,17.1813527 99,14.2637295 99,10.8020483 C99,4.66987422 96.2955081,2 90.1823693,2" id="Fill-31" fill="#2A2626"></path>
            </g>
        </g>
    </g>
</svg>